<?xml version="1.0" encoding="utf-8"?>
<svg xmlns="http://www.w3.org/2000/svg">
  <defs>
    <symbol id="check" viewBox="0 0 14 10" fill="transparent">
      <path
        d="m1 5 4 4 8-8"
        stroke="currentColor"
        stroke-width="1.5"
        stroke-linecap="round"
        stroke-linejoin="round"
      />
    </symbol>
    <symbol id="chevron" viewBox="0 0 14 8" fill="transparent">
      <path
        d="M13 7 7 1 1 7"
        stroke="currentColor"
        stroke-width="2"
        stroke-linecap="round"
        stroke-linejoin="round"
      />
    </symbol>
    <symbol id="logo" viewBox="0 0 32 28" fill="none">
      <path
        fill-rule="evenodd"
        clip-rule="evenodd"
        d="M23.87 3.815a11 11 0 0 0-15.74 0l-6.796 6.911a4.685 4.685 0 0 0 0 6.548l6.796 6.911a11 11 0 0 0 15.74 0l6.796-6.911a4.685 4.685 0 0 0 0-6.548L23.87 3.815Zm2.593 8.739a1.603 1.603 0 0 1 0 2.24l-6.332 6.439a1.54 1.54 0 0 1-2.204 0l-7.434-7.56 2.202-2.24 6.334 6.44 4.13-4.2-6.195-6.3a1.603 1.603 0 0 1 0-2.239 1.54 1.54 0 0 1 2.202 0l7.272 7.394.025.025Zm-12.666-6.44.025.026 7.317 7.44-2.203 2.24-6.24-6.346-4.13 4.2 6.193 6.299a1.603 1.603 0 0 1 0 2.24 1.54 1.54 0 0 1-2.202 0l-7.297-7.42a1.603 1.603 0 0 1 .05-2.287l6.247-6.354.037-.038a1.54 1.54 0 0 1 2.203 0Z"
        fill="#EE3535"
      />
    </symbol>

    <symbol id="eth" viewBox="0 0 16 16" fill="none">
      <rect width="16" height="16" rx="8" fill="#4753BE" />
      <g fill="#fff">
        <path d="m7.998 2.666-.07.238v6.914l.07.07 3.21-1.897-3.21-5.325Z" />
        <path
          d="m7.997 2.666-3.21 5.325 3.21 1.897V2.666ZM7.997 10.932l-.04.048v2.463l.04.116 3.21-4.523-3.21 1.896Z"
        />
        <path
          d="M7.997 13.559v-2.627l-3.21-1.896 3.21 4.523ZM7.996 9.888l3.21-1.897-3.21-1.459v3.356Z"
        />
        <path d="m4.787 7.991 3.21 1.897V6.532l-3.21 1.459Z" />
      </g>
    </symbol>

    <symbol id="uma-logo" viewBox="0 0 63 16" fill="currentcolor">
      <path
        fill-rule="evenodd"
        clip-rule="evenodd"
        d="M39.9692 15.6873H37.3335C36.8384 15.6873 36.4372 15.2849 36.4372 14.7891V7.80869L31.8106 10.7159C31.4225 10.9599 30.9289 10.9599 30.5408 10.7159L25.9143 7.80839V14.7891C25.9143 15.2849 25.5127 15.6873 25.0179 15.6873H22.3822C21.8868 15.6873 21.4858 15.2849 21.4858 14.7891V1.33507C21.4858 0.371693 22.5633 -0.197413 23.3563 0.347144L30.6692 5.36731C30.9743 5.57717 31.3771 5.57717 31.6825 5.36731L38.9948 0.347144C39.7881 -0.197712 40.8656 0.371393 40.8656 1.33477V14.7891C40.8656 15.2849 40.4643 15.6873 39.9692 15.6873Z"
      />
      <path
        fill-rule="evenodd"
        clip-rule="evenodd"
        d="M17.5172 15.5673L1.18946 15.567C0.532581 15.567 0 15.0331 0 14.3745V0.894417C0 0.400401 0.399361 0 0.892096 0H3.51515C4.00759 0 4.40725 0.400401 4.40725 0.894417V11.1483L14.2994 11.1486V0.894417C14.2994 0.400401 14.6985 0 15.1915 0H17.8146C18.307 0 18.7066 0.400401 18.7066 0.894417V14.3748C18.7066 15.0334 18.1741 15.5673 17.5172 15.5673Z"
      />
      <path
        fill-rule="evenodd"
        clip-rule="evenodd"
        d="M44.7998 0L61.1275 0.000298139C61.7844 0.000298139 62.317 0.534265 62.317 1.19285V14.6729C62.317 15.1669 61.9173 15.5673 61.4249 15.5673H58.8019C58.3091 15.5673 57.9098 15.1669 57.9098 14.6729V5.0153C57.9098 4.68615 57.6433 4.41902 57.315 4.41902L48.6123 4.41872C48.284 4.41872 48.0176 4.68555 48.0176 5.015V14.6729C48.0176 15.1669 47.6182 15.5673 47.1255 15.5673H44.5024C44.0097 15.5673 43.6104 15.1669 43.6104 14.6729V1.19256C43.6104 0.533967 44.1429 0 44.7998 0Z"
      />
      <path
        fill-rule="evenodd"
        clip-rule="evenodd"
        d="M50.7588 8.19314V10.8469C50.7588 11.3377 51.1585 11.7354 51.6516 11.7354H54.2745C54.7677 11.7354 55.1674 11.3377 55.1674 10.8469V8.19314C55.1674 7.70242 54.7677 7.30469 54.2745 7.30469H51.6516C51.1585 7.30469 50.7588 7.70242 50.7588 8.19314Z"
      />
    </symbol>

    <symbol
      id="moon"
      xmlns="http://www.w3.org/2000/svg"
      fill="none"
      stroke="currentColor"
      stroke-linecap="round"
      stroke-linejoin="round"
      stroke-width="2"
      viewBox="0 0 24 24"
    >
      <path d="M12 3a6 6 0 0 0 9 9 9 9 0 1 1-9-9Z" />
    </symbol>

    <symbol
      id="sun"
      xmlns="http://www.w3.org/2000/svg"
      fill="none"
      stroke="currentColor"
      stroke-linecap="round"
      stroke-linejoin="round"
      stroke-width="2"
      class="lucide lucide-sun"
      viewBox="0 0 24 24"
    >
      <circle cx="12" cy="12" r="4" />
      <path
        d="M12 2v2M12 20v2M4.93 4.93l1.41 1.41M17.66 17.66l1.41 1.41M2 12h2M20 12h2M6.34 17.66l-1.41 1.41M19.07 4.93l-1.41 1.41"
      />
    </symbol>

    <svg
      id="arrow_up_right"
      xmlns="http://www.w3.org/2000/svg"
      fill="none"
      viewBox="0 0 11 10"
    >
      <path
        stroke="currentColor"
        stroke-width="1.5"
        d="M1.272.757h8.485m0 0v8.486m0-8.486L1.272 9.243"
      />
    </svg>
  </defs>
</svg>
